<mxfile host="app.diagrams.net" agent="Mozilla/5.0 (Windows NT 10.0; Win64; x64) AppleWebKit/537.36 (KHTML, like Gecko) Chrome/140.0.0.0 Safari/537.36 Edg/140.0.0.0" version="28.1.2">
  <diagram name="第 1 页" id="oDwZfAhOAB4hIgWP7Iav">
    <mxGraphModel dx="1034" dy="578" grid="1" gridSize="10" guides="1" tooltips="1" connect="1" arrows="1" fold="1" page="1" pageScale="1" pageWidth="827" pageHeight="1169" math="0" shadow="0">
      <root>
        <mxCell id="0" />
        <mxCell id="1" parent="0" />
        <mxCell id="r4dvJdNH9x4mYBWODI8u-3" value="表单管理" style="rounded=0;whiteSpace=wrap;html=1;" vertex="1" parent="1">
          <mxGeometry x="80" y="160" width="80" height="50" as="geometry" />
        </mxCell>
        <mxCell id="r4dvJdNH9x4mYBWODI8u-4" value="列表管理" style="rounded=0;whiteSpace=wrap;html=1;" vertex="1" parent="1">
          <mxGeometry x="200" y="160" width="90" height="50" as="geometry" />
        </mxCell>
        <mxCell id="r4dvJdNH9x4mYBWODI8u-6" value="" style="rounded=0;whiteSpace=wrap;html=1;" vertex="1" parent="1">
          <mxGeometry x="80" y="360" width="300" height="200" as="geometry" />
        </mxCell>
        <mxCell id="r4dvJdNH9x4mYBWODI8u-7" value="" style="rounded=0;whiteSpace=wrap;html=1;" vertex="1" parent="1">
          <mxGeometry x="380" y="360" width="120" height="200" as="geometry" />
        </mxCell>
        <mxCell id="r4dvJdNH9x4mYBWODI8u-8" value="" style="rounded=0;whiteSpace=wrap;html=1;" vertex="1" parent="1">
          <mxGeometry x="100" y="390" width="250" height="170" as="geometry" />
        </mxCell>
        <mxCell id="r4dvJdNH9x4mYBWODI8u-9" value="" style="rounded=0;whiteSpace=wrap;html=1;" vertex="1" parent="1">
          <mxGeometry x="120" y="410" width="210" height="150" as="geometry" />
        </mxCell>
      </root>
    </mxGraphModel>
  </diagram>
</mxfile>
